<svg width="82" height="26" viewBox="0 0 82 26" fill="none" xmlns="http://www.w3.org/2000/svg">
<path d="M3.59158 7.42857V26H0V7.42857H3.59158ZM3.59158 0V3.71429H0V0H3.59158Z" fill="#6E7CEC"/>
<path d="M24.6009 18.5714V22.2857H21.0093V18.5714H24.6009ZM13.8262 3.71429V26H12.7846C12.0424 26 11.4318 25.7524 10.9529 25.2571C10.474 24.7619 10.2346 24.1305 10.2346 23.3629V3.71429H13.8262ZM21.0093 22.2857V26H13.8262V22.2857H21.0093ZM21.0093 7.42857V11.1429H6.64302V7.42857H21.0093Z" fill="#6E7CEC"/>
<path d="M40.9538 7.42857H44.5454V26H40.9538V7.42857ZM26.5875 14.6714C26.5875 13.0867 26.9826 11.7248 27.7727 10.5857C28.5629 9.44667 29.6404 8.58 31.0052 7.98571C32.3939 7.36667 33.9263 7.05714 35.6024 7.05714C37.2545 7.05714 38.763 7.36667 40.1278 7.98571C41.4926 8.58 42.5701 9.44667 43.3602 10.5857C44.1503 11.7248 44.5454 13.0867 44.5454 14.6714V18.3486C44.5454 19.9333 44.1503 21.3076 43.3602 22.4714C42.5701 23.6105 41.4926 24.4895 40.1278 25.1086C38.763 25.7029 37.2545 26 35.6024 26C33.9263 26 32.3939 25.7029 31.0052 25.1086C29.6404 24.4895 28.5629 23.6105 27.7727 22.4714C26.9826 21.3076 26.5875 19.9333 26.5875 18.3486V14.6714ZM30.1791 17.8286C30.1791 19.4876 30.7298 20.6514 31.8312 21.32C32.9566 21.9638 34.2136 22.2857 35.6024 22.2857C36.9432 22.2857 38.1644 21.9638 39.2658 21.32C40.3672 20.6514 40.9179 19.4876 40.9179 17.8286V15.1914C40.9179 13.5324 40.3672 12.381 39.2658 11.7371C38.1883 11.0933 36.9672 10.7714 35.6024 10.7714C34.2136 10.7714 32.9566 11.0933 31.8312 11.7371C30.7298 12.381 30.1791 13.5324 30.1791 15.1914V17.8286ZM37.3623 14.6714V18.3857H33.7707V14.6714H37.3623Z" fill="#6E7CEC"/>
<path d="M64.0421 15.6C64.0421 13.941 63.4914 12.7895 62.39 12.1457C61.2885 11.4771 60.0674 11.1429 58.7266 11.1429C57.3378 11.1429 56.0808 11.4771 54.9554 12.1457C53.854 12.7895 53.3033 13.941 53.3033 15.6V18.2371L49.7117 18.7571V15.08C49.7117 13.4952 50.1068 12.1333 50.8969 10.9943C51.6871 9.83048 52.7645 8.95143 54.1293 8.35714C55.5181 7.7381 57.0505 7.42857 58.7266 7.42857C60.3787 7.42857 61.8752 7.7381 63.216 8.35714C64.5808 8.95143 65.6583 9.83048 66.4485 10.9943C67.2386 12.1333 67.6337 13.4952 67.6337 15.08V26H64.0421V15.6ZM53.3033 14.4857V26H49.7117V14.4857H53.3033ZM82 22.2857V26H78.4084V22.2857H82ZM78.3725 15.6C78.3725 13.941 77.8218 12.7895 76.7204 12.1457C75.6189 11.4771 74.3978 11.1429 73.057 11.1429C71.6682 11.1429 70.4112 11.4771 69.2858 12.1457C68.1604 12.7895 67.5978 13.941 67.5978 15.6V18.2371L64.0421 18.7571V15.08C64.0421 13.4952 64.4372 12.1333 65.2273 10.9943C66.0175 9.83048 67.0949 8.95143 68.4597 8.35714C69.8485 7.7381 71.3809 7.42857 73.057 7.42857C74.7091 7.42857 76.2176 7.7381 77.5824 8.35714C78.9472 8.95143 80.0246 9.83048 80.8148 10.9943C81.6049 12.1333 82 13.4952 82 15.08V22.2857H78.3725V15.6ZM50.8251 7.42857V11.1429H47.2335V7.42857H50.8251Z" fill="#6E7CEC"/>
</svg>
